<?xml version="1.0" encoding="UTF-8"?>
<svg xmlns="http://www.w3.org/2000/svg" viewBox="0 0 1000 1400" width="1000" height="1400">
<rect width="1000" height="1400" fill="#F0EAD8"/>
<defs><linearGradient id="warmth" x1="0" y1="0" x2="0" y2="1"><stop offset="0%" stop-color="#F0EAD8" stop-opacity="0"/><stop offset="100%" stop-color="#D9C9A0" stop-opacity="0.18"/></linearGradient></defs>
<rect width="1000" height="1400" fill="url(#warmth)"/>
<text x="500" y="190" text-anchor="middle" font-family="Droid Sans Fallback, serif" font-size="92" fill="#1A1612">墨</text>
<text x="500" y="240" text-anchor="middle" font-family="DejaVu Serif, serif" font-style="italic" font-size="14" letter-spacing="6" fill="#7A6F60">— a quiet study —</text>
<g transform="translate(500, 760)">
<line x1="-220" y1="295" x2="220" y2="295" stroke="#1A1612" stroke-width="0.8" opacity="0.2" stroke-linecap="round"/>
<path d="M -212 -120 L -212 295" stroke="#3D362F" stroke-width="3.5" stroke-linecap="round" fill="none" opacity="0.85"/>
<circle cx="-212" cy="-122" r="5.5" fill="#3D362F"/>
<line x1="-218" y1="-30" x2="-206" y2="-30" stroke="#3D362F" stroke-width="1"/>
<line x1="-218" y1="80" x2="-206" y2="80" stroke="#3D362F" stroke-width="1"/>
<line x1="-218" y1="190" x2="-206" y2="190" stroke="#3D362F" stroke-width="1"/>
<path d="M -185 230 Q -195 275 -175 290 Q -145 295 -130 282" fill="#7C8B65" stroke="#1A1612" stroke-width="2.2" stroke-linejoin="round"/>
<path d="M 165 235 Q 175 280 200 290 Q 230 295 245 280" fill="#7C8B65" stroke="#1A1612" stroke-width="2.2" stroke-linejoin="round"/>
<line x1="205" y1="289" x2="206" y2="298" stroke="#1A1612" stroke-width="1"/>
<line x1="222" y1="291" x2="225" y2="299" stroke="#1A1612" stroke-width="1"/>
<line x1="237" y1="288" x2="241" y2="296" stroke="#1A1612" stroke-width="1"/>
<path d="M -195 225 C -228 100, -210 -55, -130 -120 C -50 -175, 70 -175, 150 -125 C 220 -65, 235 100, 200 225 C 130 275, -130 275, -195 225 Z" fill="#9C7E50" stroke="#1A1612" stroke-width="4" stroke-linejoin="round"/>
<path d="M 0 -160 Q -3 0 -5 225" stroke="#1A1612" stroke-width="1.3" fill="none" opacity="0.35" stroke-linecap="round"/>
<g stroke="#1A1612" stroke-width="1.6" fill="none" opacity="0.55" stroke-linejoin="round">
<path d="M -45 -135 L 35 -135 L 70 -90 L 35 -35 L -45 -35 L -75 -90 Z"/>
<path d="M -160 -55 L -100 -70 L -75 -15 L -110 45 L -170 30 L -185 -15 Z"/>
<path d="M 75 -55 L 135 -70 L 175 -30 L 165 25 L 100 45 L 75 -15 Z"/>
<path d="M -170 65 L -110 55 L -85 105 L -110 155 L -175 150 L -195 105 Z"/>
<path d="M 90 65 L 155 55 L 195 90 L 180 145 L 115 160 L 95 110 Z"/>
<path d="M -35 75 L 50 75 L 80 125 L 45 190 L -45 190 L -70 125 Z"/>
</g>
<path d="M -175 232 Q 0 252 175 232 L 165 248 Q 0 268 -165 248 Z" fill="#E8DCC5" stroke="#1A1612" stroke-width="1.3" stroke-linejoin="round" opacity="0.9"/>
<path d="M -40 -55 C -50 -125, -25 -195, 10 -245 C 45 -295, 95 -322, 145 -310 L 195 -290 C 150 -252, 105 -218, 75 -178 C 45 -135, 22 -95, 32 -50 Z" fill="#7C8B65" stroke="#1A1612" stroke-width="3.2" stroke-linejoin="round"/>
<path d="M -8 -135 Q 28 -130 65 -142" stroke="#1A1612" stroke-width="1.2" fill="none" opacity="0.55" stroke-linecap="round"/>
<path d="M 12 -180 Q 48 -180 88 -195" stroke="#1A1612" stroke-width="1" fill="none" opacity="0.45" stroke-linecap="round"/>
<path d="M 32 -225 Q 72 -228 118 -242" stroke="#1A1612" stroke-width="0.9" fill="none" opacity="0.38" stroke-linecap="round"/>
<ellipse cx="165" cy="-310" rx="65" ry="50" fill="#8C9C72" stroke="#1A1612" stroke-width="3.2"/>
<ellipse cx="187" cy="-320" rx="13" ry="15.5" fill="#F5EFE0" stroke="#1A1612" stroke-width="2"/>
<ellipse cx="190" cy="-318" rx="8" ry="10.5" fill="#2D3624"/>
<ellipse cx="190" cy="-318" rx="3.8" ry="5.5" fill="#0F0D0A"/>
<circle cx="193" cy="-322" r="2" fill="#FAF5E8"/>
<path d="M 152 -352 Q 185 -362 222 -348" stroke="#1A1612" stroke-width="2.3" fill="none" stroke-linecap="round" opacity="0.92"/>
<ellipse cx="230" cy="-298" rx="1.8" ry="2.4" fill="#1A1612" opacity="0.75"/>
<path d="M 178 -276 Q 205 -267 230 -276" stroke="#1A1612" stroke-width="1.9" fill="none" stroke-linecap="round"/>
<path d="M 178 -266 Q 165 -215 150 -150" stroke="#1A1612" stroke-width="1.8" fill="none" stroke-linecap="round" opacity="0.9"/>
<path d="M 188 -264 Q 190 -200 180 -130" stroke="#1A1612" stroke-width="1.5" fill="none" stroke-linecap="round" opacity="0.75"/>
<path d="M 200 -262 Q 212 -210 220 -148" stroke="#1A1612" stroke-width="1.2" fill="none" stroke-linecap="round" opacity="0.6"/>
<path d="M 218 -258 Q 230 -218 240 -175" stroke="#1A1612" stroke-width="1" fill="none" stroke-linecap="round" opacity="0.45"/>
<path d="M -130 25 C -160 -10, -195 -55, -212 -110 L -205 -118 C -188 -85, -155 -45, -130 -15 C -118 0, -108 18, -105 30 Z" fill="#7C8B65" stroke="#1A1612" stroke-width="2.6" stroke-linejoin="round"/>
<ellipse cx="-210" cy="-115" rx="15" ry="17" fill="#7C8B65" stroke="#1A1612" stroke-width="2.5"/>
</g>
<line x1="380" y1="1240" x2="620" y2="1240" stroke="#1A1612" stroke-width="0.5" opacity="0.30"/>
<text x="500" y="1270" text-anchor="middle" font-family="DejaVu Serif, serif" font-style="italic" font-size="11" letter-spacing="3" fill="#7A6F60">specimen i · turtle at rest · MMXXVI</text>
<g transform="translate(880, 1310)">
<rect x="-34" y="-34" width="68" height="68" fill="#B23A1F" stroke="#7A1F0C" stroke-width="1"/>
<rect x="-28" y="-28" width="56" height="56" fill="none" stroke="#F0EAD8" stroke-width="1.2"/>
<text x="0" y="14" text-anchor="middle" font-family="Droid Sans Fallback, serif" font-size="44" fill="#F0EAD8" font-weight="bold">龜</text>
</g>
</svg>
